<svg width="165" height="17" viewBox="0 0 165 17" fill="none" xmlns="http://www.w3.org/2000/svg">
<path fill-rule="evenodd" clip-rule="evenodd" d="M33.4385 8.5C33.4385 3.84737 30.0581 0 24.7591 0C19.5515 0 16.0797 3.93684 16.0797 8.5C16.0797 12.9737 19.3688 17 24.6678 17C30.1495 17 33.4385 12.9737 33.4385 8.5ZM31.0631 8.41052C31.0631 12.0789 28.4136 14.7632 24.7591 14.7632C21.196 14.7632 18.5465 12.0789 18.4552 8.41052C18.4552 4.7421 21.1047 2.05788 24.7591 2.05788C28.4136 2.05788 31.0631 4.7421 31.0631 8.41052ZM132.566 16.821H130.1L127.816 11.9895H120.598L118.405 16.821H115.939L123.247 0.178931H124.983L132.566 16.821ZM121.512 9.75263H126.719L123.978 3.75788L121.512 9.75263ZM13.613 16.821V0.26841H0V16.821H2.46679V2.32629H11.1462V16.821H13.613ZM49.5183 16.821V0.26841H37.0017V10.9158C37.0017 13.421 36.8189 14.6737 34.2608 14.6737H33.7126L34.0781 16.821C34.4435 16.9105 34.6263 16.9105 34.9003 16.9105C38.2807 16.9105 39.4684 14.6737 39.4684 11.5421V2.41577H47.0515V16.821H49.5183ZM56.0963 0.26841V12.5263L65.6894 0.26841H67.6993V16.821H65.2326V4.47368L55.6395 16.821H53.6296V0.26841H56.0963ZM85.1495 16.821H87.6163V0.26841H85.3322L79.6678 7.06842L74.0947 0.26841H71.8106V16.821H74.2774V3.93684L79.485 10.2895H79.8505L85.1495 3.93684V16.821ZM101.869 0.26841V2.32629H94.103V7.15789H101.777V9.30526H94.103V14.6737H102.234V16.821H91.7276V0.26841H101.869ZM117.674 2.32629V0.26841H103.787V2.32629H109.543V16.821H111.919V2.32629H117.674ZM148.463 16.821V0.26841H136.221V10.9158C136.221 13.421 136.038 14.6737 133.48 14.6737H132.932L133.297 16.821C133.663 16.9105 133.846 16.9105 134.12 16.9105C137.5 16.9105 138.688 14.6737 138.688 11.5421V2.41577H145.997V16.821H148.463ZM165 0.26841V16.821H162.533V2.41577H155.224V11.5421C155.224 14.6737 154.037 16.9105 150.656 16.9105C150.382 16.9105 150.199 16.9105 149.834 16.821L149.468 14.6737H150.017C152.575 14.6737 152.757 13.421 152.757 10.9158V0.26841H165Z" fill="white"/>
</svg>
