<svg width="220" height="40" viewBox="0 0 220 40" fill="none" xmlns="http://www.w3.org/2000/svg">
<path fill-rule="evenodd" clip-rule="evenodd" d="M88.4385 20.5C88.4385 15.8474 85.0581 12 79.7591 12C74.5515 12 71.0797 15.9368 71.0797 20.5C71.0797 24.9737 74.3688 29 79.6678 29C85.1495 29 88.4385 24.9737 88.4385 20.5ZM86.0631 20.4105C86.0631 24.0789 83.4136 26.7632 79.7591 26.7632C76.196 26.7632 73.5465 24.0789 73.4552 20.4105C73.4552 16.7421 76.1047 14.0579 79.7591 14.0579C83.4136 14.0579 86.0631 16.7421 86.0631 20.4105ZM187.566 28.821H185.1L182.816 23.9895H175.598L173.405 28.821H170.939L178.247 12.1789H179.983L187.566 28.821ZM176.512 21.7526H181.719L178.978 15.7579L176.512 21.7526ZM68.613 28.821V12.2684H55V28.821H57.4668V14.3263H66.1462V28.821H68.613ZM104.518 28.821V12.2684H92.0017V22.9158C92.0017 25.421 91.8189 26.6737 89.2608 26.6737H88.7126L89.0781 28.821C89.4435 28.9105 89.6263 28.9105 89.9003 28.9105C93.2807 28.9105 94.4684 26.6737 94.4684 23.5421V14.4158H102.051V28.821H104.518ZM111.096 12.2684V24.5263L120.689 12.2684H122.699V28.821H120.233V16.4737L110.64 28.821H108.63V12.2684H111.096ZM140.15 28.821H142.616V12.2684H140.332L134.668 19.0684L129.095 12.2684H126.811V28.821H129.277V15.9368L134.485 22.2895H134.85L140.15 15.9368V28.821ZM156.869 12.2684V14.3263H149.103V19.1579H156.777V21.3053H149.103V26.6737H157.234V28.821H146.728V12.2684H156.869ZM172.674 14.3263V12.2684H158.787V14.3263H164.543V28.821H166.919V14.3263H172.674ZM203.463 28.821V12.2684H191.221V22.9158C191.221 25.421 191.038 26.6737 188.48 26.6737H187.932L188.297 28.821C188.663 28.9105 188.846 28.9105 189.12 28.9105C192.5 28.9105 193.688 26.6737 193.688 23.5421V14.4158H200.997V28.821H203.463ZM220 12.2684V28.821H217.533V14.4158H210.224V23.5421C210.224 26.6737 209.037 28.9105 205.656 28.9105C205.382 28.9105 205.199 28.9105 204.834 28.821L204.468 26.6737H205.017C207.575 26.6737 207.757 25.421 207.757 22.9158V12.2684H220Z" fill="white"/>
<path fill-rule="evenodd" clip-rule="evenodd" d="M26.6986 30.1654L2.64252 35.7355L0 40H39L29.979 30.9487C29.0678 29.9914 28.0654 29.8173 26.6986 30.1654Z" fill="white"/>
<path fill-rule="evenodd" clip-rule="evenodd" d="M18.3457 28.4865L25 4.5027L22.4938 0L4 34L16.0124 30.9676C17.3087 30.6919 18 29.9568 18.3457 28.4865Z" fill="white"/>
<path fill-rule="evenodd" clip-rule="evenodd" d="M24.0863 21.9461L40.8808 40H46L26.7806 6L23.0984 18.5553C22.829 19.9299 23.0984 20.8464 24.0863 21.9461Z" fill="white"/>
</svg>
